<svg width="50" height="50" viewBox="0 0 50 50" fill="none" xmlns="http://www.w3.org/2000/svg">
<path fill-rule="evenodd" clip-rule="evenodd" d="M30.875 8.33332H39.5833C41.875 8.33332 43.75 10.2083 43.75 12.5V41.6667C43.75 43.9583 41.875 45.8333 39.5833 45.8333H10.4167C10.125 45.8333 9.85417 45.8125 9.58333 45.7708C8.77083 45.6042 8.04167 45.1875 7.47917 44.625C7.10417 44.2292 6.79167 43.7917 6.58333 43.2917C6.375 42.7917 6.25 42.2292 6.25 41.6667V12.5C6.25 11.9167 6.375 11.375 6.58333 10.8958C6.79167 10.3958 7.10417 9.93749 7.47917 9.56249C8.04167 8.99999 8.77083 8.58332 9.58333 8.41666C9.85417 8.35416 10.125 8.33332 10.4167 8.33332H19.125C20 5.91666 22.2917 4.16666 25 4.16666C27.7083 4.16666 30 5.91666 30.875 8.33332ZM14.5833 20.8333V16.6667H35.4167V20.8333H14.5833ZM35.4167 29.1667V25H14.5833V29.1667H35.4167ZM29.1667 33.3333H14.5833V37.5H29.1667V33.3333ZM25 7.81249C25.8542 7.81249 26.5625 8.52082 26.5625 9.37499C26.5625 10.2292 25.8542 10.9375 25 10.9375C24.1458 10.9375 23.4375 10.2292 23.4375 9.37499C23.4375 8.52082 24.1458 7.81249 25 7.81249ZM10.4167 41.6667H39.5833V12.5H10.4167V41.6667Z" fill="#FF5C5C"/>
</svg>
