<svg width="50" height="50" viewBox="0 0 50 50" fill="none" xmlns="http://www.w3.org/2000/svg">
<g id="group_24px">
<path id="icon/social/group_24px" fill-rule="evenodd" clip-rule="evenodd" d="M18.7501 25C22.7709 25 26.0417 21.7292 26.0417 17.7083C26.0417 13.6875 22.7709 10.4167 18.7501 10.4167C14.7292 10.4167 11.4584 13.6875 11.4584 17.7083C11.4584 21.7292 14.7292 25 18.7501 25ZM4.16675 35.9375C4.16675 31.0833 13.8751 28.6458 18.7501 28.6458C23.6251 28.6458 33.3334 31.0833 33.3334 35.9375V39.5833H4.16675V35.9375ZM18.7502 32.8125C15.021 32.8125 10.7918 34.2083 9.04184 35.4167H28.4585C26.7085 34.2083 22.4793 32.8125 18.7502 32.8125ZM21.8751 17.7083C21.8751 15.9792 20.4792 14.5833 18.7501 14.5833C17.0209 14.5833 15.6251 15.9792 15.6251 17.7083C15.6251 19.4375 17.0209 20.8333 18.7501 20.8333C20.4792 20.8333 21.8751 19.4375 21.8751 17.7083ZM33.4168 28.7708C35.8335 30.5208 37.5001 32.8542 37.5001 35.9375V39.5833H45.8335V35.9375C45.8335 31.7292 38.5418 29.3333 33.4168 28.7708ZM38.5417 17.7083C38.5417 21.7292 35.2709 25 31.2501 25C30.1251 25 29.0834 24.7292 28.1251 24.2708C29.4376 22.4167 30.2084 20.1458 30.2084 17.7083C30.2084 15.2708 29.4376 13 28.1251 11.1458C29.0834 10.6875 30.1251 10.4167 31.2501 10.4167C35.2709 10.4167 38.5417 13.6875 38.5417 17.7083Z" fill="#FF5C5C"/>
</g>
</svg>
