<svg width="50" height="50" viewBox="0 0 50 50" fill="none" xmlns="http://www.w3.org/2000/svg">
<g id="location_on_24px">
<path id="icon/communication/location_on_24px" fill-rule="evenodd" clip-rule="evenodd" d="M25.0001 4.16667C16.9376 4.16667 10.4167 10.6875 10.4167 18.75C10.4167 29.6875 25.0001 45.8333 25.0001 45.8333C25.0001 45.8333 39.5834 29.6875 39.5834 18.75C39.5834 10.6875 33.0626 4.16667 25.0001 4.16667ZM14.5834 18.75C14.5834 13 19.2501 8.33334 25.0001 8.33334C30.7501 8.33334 35.4167 13 35.4167 18.75C35.4167 24.75 29.4167 33.7292 25.0001 39.3333C20.6667 33.7708 14.5834 24.6875 14.5834 18.75ZM19.7917 18.75C19.7917 15.8735 22.1236 13.5417 25.0001 13.5417C26.8608 13.5417 28.5803 14.5344 29.5106 16.1458C30.441 17.7573 30.441 19.7427 29.5106 21.3542C28.5803 22.9656 26.8608 23.9583 25.0001 23.9583C22.1236 23.9583 19.7917 21.6265 19.7917 18.75Z" fill="white"/>
</g>
</svg>
