<svg width="102" height="204" viewBox="0 0 102 204" fill="none" xmlns="http://www.w3.org/2000/svg">
<g clip-path="url(#clip0)">
<path d="M94.8722 170.146C92.5734 167.847 88.8465 167.847 86.5476 170.146C84.2487 172.445 84.2482 176.172 86.547 178.471C88.8458 180.77 92.5734 180.77 94.8724 178.471C97.1713 176.172 97.171 172.445 94.8722 170.146Z" fill="#FF5C5C"/>
<path d="M74.2329 149.506C71.934 147.207 68.2066 147.207 65.9077 149.506C63.6088 151.805 63.6088 155.533 65.9077 157.832C68.2067 160.131 71.934 160.131 74.2329 157.832C76.5318 155.533 76.5319 151.805 74.2329 149.506Z" fill="#FF5C5C"/>
<path d="M53.7668 129.04C51.4679 126.741 47.7406 126.741 45.4416 129.04C43.1427 131.339 43.1427 135.067 45.4416 137.366C47.7406 139.664 51.4679 139.664 53.7668 137.366C56.0658 135.067 56.0658 131.339 53.7668 129.04Z" fill="#FF5C5C"/>
<path d="M33.1273 108.401C30.8283 106.102 27.101 106.102 24.802 108.401C22.5031 110.7 22.5031 114.427 24.8021 116.726C27.101 119.025 30.8284 119.025 33.1273 116.726C35.4262 114.427 35.4262 110.7 33.1273 108.401Z" fill="#FF5C5C"/>
<path d="M12.4878 87.7613C10.1888 85.4623 6.46152 85.4624 4.16258 87.7613C1.86364 90.0602 1.86364 93.7875 4.16258 96.0865C6.46152 98.3854 10.1888 98.3854 12.4878 96.0865C14.7867 93.7876 14.7867 90.0602 12.4878 87.7613Z" fill="#FF5C5C"/>
<path d="M95.0459 128.693C92.7469 126.394 89.0196 126.394 86.7208 128.693C84.4218 130.992 84.4218 134.72 86.7208 137.019C89.0197 139.318 92.747 139.317 95.046 137.019C97.3448 134.72 97.3448 130.992 95.0459 128.693Z" fill="#FF5C5C"/>
<path d="M74.5798 108.227C72.2809 105.928 68.5536 105.928 66.2547 108.227C63.9558 110.526 63.9558 114.254 66.2547 116.552C68.5536 118.851 72.2809 118.851 74.5799 116.552C76.8788 114.254 76.8788 110.526 74.5798 108.227Z" fill="#FF5C5C"/>
<path d="M53.9402 87.5878C51.6413 85.2888 47.914 85.2888 45.6151 87.5877C43.3162 89.8867 43.3162 93.614 45.6151 95.9129C47.9141 98.2118 51.6414 98.2119 53.9404 95.913C56.2392 93.6141 56.2392 89.8867 53.9402 87.5878Z" fill="#FF5C5C"/>
<path d="M33.3008 66.9483C31.0018 64.6494 27.2745 64.6494 24.9756 66.9482C22.6767 69.2472 22.6767 72.9745 24.9756 75.2734C27.2746 77.5724 31.0019 77.5724 33.3008 75.2734C35.5997 72.9746 35.5997 69.2472 33.3008 66.9483Z" fill="#FF5C5C"/>
<path d="M95.5663 87.2409C93.2673 84.942 89.54 84.942 87.2411 87.2409C84.9421 89.5399 84.9421 93.2672 87.2411 95.5661C89.54 97.8651 93.2673 97.8651 95.5663 95.5661C97.8652 93.2672 97.8652 89.5399 95.5663 87.2409Z" fill="#FF5C5C"/>
<path d="M74.9266 66.6013C72.6277 64.3024 68.9004 64.3024 66.6014 66.6014C64.3025 68.9003 64.3025 72.6276 66.6014 74.9265C68.9004 77.2255 72.6278 77.2256 74.9267 74.9266C77.2256 72.6277 77.2256 68.9003 74.9266 66.6013Z" fill="#FF5C5C"/>
<path d="M54.2872 45.9619C51.9883 43.6629 48.261 43.6629 45.962 45.9619C43.6631 48.2608 43.6631 51.9881 45.962 54.2871C48.261 56.586 51.9883 56.586 54.2872 54.2871C56.5862 51.9881 56.5862 48.2608 54.2872 45.9619Z" fill="#FF5C5C"/>
<path d="M95.7397 45.7883C93.4408 43.4893 89.7134 43.4894 87.4145 45.7883C85.1156 48.0872 85.1156 51.8145 87.4145 54.1135C89.7135 56.4124 93.4409 56.4125 95.7397 54.1136C98.0387 51.8147 98.0387 48.0872 95.7397 45.7883Z" fill="#FF5C5C"/>
<path d="M75.1003 25.1488C72.8013 22.8499 69.074 22.85 66.775 25.1489C64.4761 27.4478 64.4761 31.1751 66.7751 33.474C69.074 35.773 72.8013 35.773 75.1002 33.4741C77.3991 31.1752 77.3992 27.4478 75.1003 25.1488Z" fill="#FF5C5C"/>
<path d="M96.0864 4.16258C93.7875 1.86364 90.0599 1.86393 87.7611 4.16273C85.4623 6.46154 85.462 10.1891 87.761 12.4881C90.0599 14.787 93.7875 14.7867 96.0863 12.4879C98.3851 10.1891 98.3854 6.46151 96.0864 4.16258Z" fill="#FF5C5C"/>
</g>
<defs>
<clipPath id="clip0">
<rect y="91.9239" width="130" height="158" transform="rotate(-45 0 91.9239)" fill="white"/>
</clipPath>
</defs>
</svg>
