<svg width="102" height="204" viewBox="0 0 102 204" fill="none" xmlns="http://www.w3.org/2000/svg">
<g clip-path="url(#clip0)">
<path d="M13.8855 12.4878C16.1844 10.1888 16.1844 6.46152 13.8855 4.16258C11.5865 1.86364 7.85926 1.86364 5.56032 4.16258C3.26138 6.46152 3.26135 10.1888 5.56029 12.4878C7.85923 14.7867 11.5866 14.7867 13.8855 12.4878Z" fill="#FFBD4A"/>
<path d="M14.059 53.9402C16.358 51.6413 16.358 47.914 14.0591 45.6151C11.7601 43.3162 8.03283 43.3162 5.73389 45.6151C3.43494 47.9141 3.43487 51.6414 5.73382 53.9404C8.03269 56.2392 11.7601 56.2392 14.059 53.9402Z" fill="#FFBD4A"/>
<path d="M34.6985 33.3008C36.9974 31.0018 36.9974 27.2745 34.6985 24.9756C32.3996 22.6767 28.6723 22.6767 26.3734 24.9756C24.0744 27.2746 24.0744 31.0019 26.3734 33.3008C28.6722 35.5997 32.3996 35.5997 34.6985 33.3008Z" fill="#FFBD4A"/>
<path d="M14.4059 95.5663C16.7048 93.2673 16.7048 89.54 14.4059 87.2411C12.1069 84.9421 8.37964 84.9421 6.08069 87.2411C3.78175 89.54 3.78174 93.2673 6.08069 95.5663C8.37963 97.8652 12.1069 97.8652 14.4059 95.5663Z" fill="#FFBD4A"/>
<path d="M35.0455 74.9266C37.3444 72.6277 37.3444 68.9004 35.0455 66.6014C32.7465 64.3025 29.0192 64.3025 26.7203 66.6014C24.4213 68.9004 24.4213 72.6278 26.7202 74.9267C29.0192 77.2256 32.7465 77.2256 35.0455 74.9266Z" fill="#FFBD4A"/>
<path d="M55.6849 54.2872C57.9839 51.9883 57.9839 48.261 55.6849 45.962C53.386 43.6631 49.6587 43.6631 47.3598 45.962C45.0608 48.261 45.0608 51.9883 47.3597 54.2872C49.6587 56.5862 53.386 56.5862 55.6849 54.2872Z" fill="#FFBD4A"/>
<path d="M14.7528 136.845C17.0517 134.546 17.0517 130.819 14.7527 128.52C12.4539 126.221 8.72656 126.221 6.42761 128.52C4.12867 130.819 4.12867 134.546 6.42754 136.845C8.72649 139.144 12.4539 139.144 14.7528 136.845Z" fill="#FFBD4A"/>
<path d="M35.2189 116.379C37.5179 114.08 37.5178 110.353 35.2189 108.054C32.92 105.755 29.1927 105.755 26.8937 108.054C24.5948 110.353 24.5948 114.08 26.8937 116.379C29.1926 118.678 32.92 118.678 35.2189 116.379Z" fill="#FFBD4A"/>
<path d="M55.8585 95.7397C58.1575 93.4408 58.1574 89.7134 55.8584 87.4145C53.5596 85.1156 49.8323 85.1156 47.5333 87.4145C45.2344 89.7135 45.2343 93.4409 47.5332 95.7397C49.8321 98.0387 53.5596 98.0387 55.8585 95.7397Z" fill="#FFBD4A"/>
<path d="M76.498 75.1003C78.7969 72.8013 78.7969 69.074 76.4979 66.775C74.199 64.4761 70.4717 64.4761 68.1728 66.7751C65.8739 69.074 65.8738 72.8013 68.1727 75.1002C70.4717 77.3991 74.1991 77.3992 76.498 75.1003Z" fill="#FFBD4A"/>
<path d="M15.0997 178.471C17.3985 176.172 17.3978 172.445 15.099 170.146C12.8002 167.847 9.07305 167.847 6.77425 170.145C4.47544 172.444 4.47544 176.172 6.77425 178.471C9.07305 180.77 12.8009 180.77 15.0997 178.471Z" fill="#FFBD4A"/>
<path d="M35.7391 157.832C38.038 155.533 38.0377 151.805 35.7389 149.506C33.4401 147.207 29.7125 147.207 27.4136 149.506C25.1146 151.805 25.1149 155.533 27.4137 157.831C29.7125 160.13 33.4401 160.131 35.7391 157.832Z" fill="#FFBD4A"/>
<path d="M56.2051 137.366C58.5041 135.067 58.5038 131.339 56.205 129.04C53.9062 126.741 50.1786 126.741 47.8796 129.04C45.5807 131.339 45.581 135.067 47.8798 137.365C50.1786 139.664 53.9062 139.664 56.2051 137.366Z" fill="#FFBD4A"/>
<path d="M76.8447 116.726C79.1436 114.427 79.1434 110.699 76.8446 108.401C74.5458 106.102 70.8182 106.102 68.5192 108.401C66.2203 110.699 66.2205 114.427 68.5193 116.726C70.8181 119.025 74.5458 119.025 76.8447 116.726Z" fill="#FFBD4A"/>
<path d="M97.4842 96.0864C99.7831 93.7875 99.7828 90.0599 97.484 87.7611C95.1852 85.4623 91.4576 85.462 89.1587 87.761C86.8598 90.0599 86.86 93.7875 89.1588 96.0863C91.4576 98.3851 95.1852 98.3854 97.4842 96.0864Z" fill="#FFBD4A"/>
</g>
<defs>
<clipPath id="clip0">
<rect x="9.7229" width="130" height="158" transform="rotate(45 9.7229 0)" fill="white"/>
</clipPath>
</defs>
</svg>
